<svg width="18" height="20" viewBox="0 0 18 20" fill="none" xmlns="http://www.w3.org/2000/svg">
<path fill-rule="evenodd" clip-rule="evenodd" d="M9 0.5C7.8239 0.49964 6.67866 0.876291 5.73236 1.57467C4.78607 2.27305 4.08856 3.25638 3.74221 4.38032C3.39586 5.50427 3.41892 6.70964 3.808 7.81952C4.19708 8.92939 4.93169 9.88532 5.904 10.547C4.2165 11.1659 2.75283 12.2757 1.70136 13.7335C0.649895 15.1913 0.0587481 16.9304 0.00399992 18.727C-0.00196745 18.9259 0.0713273 19.119 0.20776 19.2639C0.344193 19.4088 0.532588 19.4935 0.7315 19.4995C0.930412 19.5055 1.12355 19.4322 1.26842 19.2957C1.41329 19.1593 1.49803 18.9709 1.504 18.772C1.56355 16.8235 2.37946 14.9747 3.77883 13.6174C5.17819 12.2602 7.05105 11.5011 9.0005 11.5011C10.95 11.5011 12.8228 12.2602 14.2222 13.6174C15.6215 14.9747 16.4375 16.8235 16.497 18.772C16.4978 18.8719 16.5185 18.9706 16.5579 19.0623C16.5973 19.1541 16.6546 19.237 16.7265 19.3063C16.7984 19.3756 16.8835 19.4299 16.9766 19.4659C17.0698 19.5019 17.1692 19.5189 17.269 19.516C17.3688 19.513 17.467 19.4902 17.5579 19.4488C17.6488 19.4074 17.7305 19.3483 17.7982 19.2749C17.8659 19.2015 17.9183 19.1153 17.9523 19.0214C17.9862 18.9275 18.0011 18.8277 17.996 18.728C17.9414 16.9312 17.3504 15.1919 16.2989 13.7339C15.2474 12.2759 13.7837 11.166 12.096 10.547C13.0683 9.88532 13.8029 8.92939 14.192 7.81952C14.5811 6.70964 14.6041 5.50427 14.2578 4.38032C13.9114 3.25638 13.2139 2.27305 12.2676 1.57467C11.3213 0.876291 10.1761 0.49964 9 0.5ZM5 6C5 4.93913 5.42143 3.92172 6.17157 3.17157C6.92172 2.42143 7.93913 2 9 2C10.0609 2 11.0783 2.42143 11.8284 3.17157C12.5786 3.92172 13 4.93913 13 6C13 7.06087 12.5786 8.07828 11.8284 8.82843C11.0783 9.57857 10.0609 10 9 10C7.93913 10 6.92172 9.57857 6.17157 8.82843C5.42143 8.07828 5 7.06087 5 6Z" fill="black"/>
</svg>
